<svg width="119" height="119" viewBox="0 0 119 119" fill="none" xmlns="http://www.w3.org/2000/svg">
<path d="M108.781 29.6809C111.271 33.7809 106.031 41.2309 107.321 45.6309C108.651 50.1809 117.041 53.6509 117.141 58.2909C117.241 62.9909 108.991 66.8309 107.881 71.3709C106.771 75.9109 112.331 83.1209 110.071 87.2409C107.851 91.3109 98.8009 90.5209 95.5209 93.9509C92.3509 97.2609 93.5709 106.281 89.4609 108.781C85.3609 111.271 77.9109 106.031 73.5109 107.321C68.9609 108.651 65.4909 117.041 60.8509 117.141C56.1509 117.241 52.3109 108.991 47.7709 107.881C43.2309 106.771 36.0209 112.331 31.9009 110.071C27.8309 107.851 28.6209 98.8009 25.1909 95.5209C21.8809 92.3509 12.8609 93.5709 10.3609 89.4609C7.8609 85.3509 13.1109 77.9109 11.8209 73.5109C10.4909 68.9609 2.1009 65.4909 2.0009 60.8509C1.9009 56.1509 10.1509 52.3109 11.2609 47.7709C12.3709 43.2309 6.8109 36.0209 9.0709 31.9009C11.2909 27.8309 20.3409 28.6209 23.6209 25.1909C26.7909 21.8809 25.5709 12.8609 29.6809 10.3609C33.7809 7.8709 41.2309 13.1109 45.6309 11.8209C50.1809 10.4909 53.6509 2.1009 58.2909 2.0009C62.9909 1.9009 66.8309 10.1509 71.3709 11.2609C75.9109 12.3709 83.1209 6.8109 87.2409 9.0709C91.3109 11.2909 90.5209 20.3409 93.9509 23.6209C97.2609 26.7909 106.281 25.5709 108.781 29.6809Z" fill="#009245"/>
<path d="M108.781 29.6809C111.271 33.7809 106.031 41.2309 107.321 45.6309C108.651 50.1809 117.041 53.6509 117.141 58.2909C117.241 62.9909 108.991 66.8309 107.881 71.3709C106.771 75.9109 112.331 83.1209 110.071 87.2409C107.851 91.3109 98.8009 90.5209 95.5209 93.9509C92.3509 97.2609 93.5709 106.281 89.4609 108.781C85.3609 111.271 77.9109 106.031 73.5109 107.321C68.9609 108.651 65.4909 117.041 60.8509 117.141C56.1509 117.241 52.3109 108.991 47.7709 107.881C43.2309 106.771 36.0209 112.331 31.9009 110.071C27.8309 107.851 28.6209 98.8009 25.1909 95.5209C21.8809 92.3509 12.8609 93.5709 10.3609 89.4609C7.8609 85.3509 13.1109 77.9109 11.8209 73.5109C10.4909 68.9609 2.1009 65.4909 2.0009 60.8509C1.9009 56.1509 10.1509 52.3109 11.2609 47.7709C12.3709 43.2309 6.8109 36.0209 9.0709 31.9009C11.2909 27.8309 20.3409 28.6209 23.6209 25.1909C26.7909 21.8809 25.5709 12.8609 29.6809 10.3609C33.7809 7.8709 41.2309 13.1109 45.6309 11.8209C50.1809 10.4909 53.6509 2.1009 58.2909 2.0009C62.9909 1.9009 66.8309 10.1509 71.3709 11.2609C75.9109 12.3709 83.1209 6.8109 87.2409 9.0709C91.3109 11.2909 90.5209 20.3409 93.9509 23.6209C97.2609 26.7909 106.281 25.5709 108.781 29.6809Z" stroke="white" stroke-width="3" stroke-miterlimit="10"/>
<path d="M35.2705 58.2107C38.4105 53.5707 48.2105 49.7307 55.3305 58.2107" stroke="white" stroke-width="3" stroke-miterlimit="10"/>
<path fill-rule="evenodd" clip-rule="evenodd" d="M72.5609 39.1807C69.3309 39.1807 66.7109 45.0207 66.7109 52.2307C66.7109 59.4407 69.3309 65.2807 72.5609 65.2807C75.7909 65.2807 78.4109 59.4407 78.4109 52.2307C78.4109 45.0207 75.7909 39.1807 72.5609 39.1807Z" fill="white"/>
<path d="M23.3701 67.1709C24.2101 71.1709 25.7301 75.0909 27.9701 78.7809C38.5801 96.2409 61.3301 101.791 78.7901 91.1809C87.5201 85.8809 93.2701 77.5409 95.5201 68.3409" stroke="white" stroke-width="3" stroke-miterlimit="10"/>
</svg>
