<svg width="55" height="94" viewBox="0 0 55 94" fill="none" xmlns="http://www.w3.org/2000/svg">
<path d="M27.1468 40.0441C29.0894 38.4244 30.7159 36.3081 32.2343 34.3386C32.2725 33.7646 31.9926 34.1917 31.8441 34.3715C31.0319 35.3572 30.8707 35.5736 29.7934 36.3699C29.6132 36.5033 29.3269 36.4376 29.1593 36.5574C28.6355 36.9304 28.451 37.6591 27.7873 37.9181L31.2164 33.0244L32.3446 31.7333L32.4506 32.3131C32.5079 32.3846 32.6797 32.203 32.7709 32.1237C33.3053 31.6541 36.868 28.0051 36.9804 27.6804C38.0089 24.7078 37.0059 21.5053 35.5299 18.7801C31.2376 10.8501 20.8314 11.8126 12.9467 14.0584C11.4814 14.4759 9.91418 15.3456 8.48696 15.4055C8.74356 14.8663 10.122 14.5146 10.298 14.1531C10.3659 14.0159 10.2429 13.44 9.87176 13.5694L0.852513 16.8512C2.24368 13.5849 6.56562 12.4311 9.75725 11.0511C9.32887 10.22 8.30034 11.2096 7.68534 11.3912C7.18486 11.5401 6.71619 11.5304 6.21359 11.5865L0.852513 14.53L1.27453 13.8536C0.600152 13.9599 1.14941 12.7403 1.34027 12.4639C1.58627 12.1122 2.96683 11.3603 2.65297 10.8597C2.44939 11.0086 2.00404 11.3893 1.80046 11.4396C1.65837 11.4744 1.8768 10.4597 0.954306 11.8242C0.759203 10.8907 2.05918 10.0055 2.45787 9.13768L3.60303 7.96064C2.76112 8.00316 2.16733 9.03331 1.49508 9.22659C1.22151 9.30583 0.0636204 9.51263 0 9.12222C1.21939 9.25364 0.90553 7.86207 1.35299 7.37116C2.05918 6.6 4.10564 5.92161 4.77577 5.25868C5.07903 4.95717 5.11084 4.57063 5.39289 4.27492C7.30998 2.26101 16.4247 0.243229 19.4106 0.0402918C23.3466 -0.228358 35.7737 0.873301 39.099 2.54318C39.3407 2.66495 39.1287 3.00124 39.3789 3.1346C41.3108 4.16282 43.5927 4.46626 45.8767 5.87329C52.2557 9.79674 53.9607 16.857 54.0795 23.4245L53.4475 22.6533C53.6087 23.5965 52.7095 24.4372 53.1273 25.3572L53.8674 24.0062C53.8907 25.1427 53.7507 26.5284 53.1273 27.4832L53.0191 26.7121L52.4911 27.4832L52.1772 27.0986C51.7255 28.6892 51.189 30.3263 50.0544 31.6405L50.6864 31.8299C50.1498 32.3228 50.0438 33.0862 49.6748 33.6138C49.1446 34.3676 46.8819 36.1612 46.6634 36.6676C46.6274 36.7526 46.6698 36.8628 46.6634 36.9556L47.5075 36.857C45.1175 38.9675 42.9544 41.2849 40.6492 43.4592C38.2104 45.7592 36.2106 47.1643 34.0666 49.9261C33.7527 50.332 31.9077 52.8542 32.0307 52.9973C33.5767 52.0502 31.6851 53.5578 31.8144 54.3521C31.7254 54.4313 31.227 54.126 31.1825 54.155C31.1125 54.1994 30.6035 55.4383 30.5484 55.6103C30.2833 56.4221 31.4539 55.2972 31.6045 55.1233C30.5717 57.9644 28.3726 60.4499 27.5752 63.4321L27.1553 62.8542C27.3059 63.8708 26.4597 63.6099 26.3007 64.2033L26.0907 63.6254C25.3082 63.9675 25.8744 65.3358 25.0346 65.7514C25.3379 64.8875 24.8501 64.2999 24.8077 63.5384C24.7462 62.4116 24.848 61.2616 24.9265 60.1465C24.5702 60.4963 24.7292 60.8906 24.1842 60.5311C24.2585 61.4008 24.0103 62.402 23.6074 63.1905C23.5099 63.3819 23.2851 63.3896 23.1409 63.5983C23.0624 63.7123 23.1599 63.9694 23.1218 64.0119C23.0836 64.0544 21.896 63.7549 21.8578 63.8148C21.7751 63.9443 21.8027 64.7116 21.6373 64.9764L20.473 63.8187C20.4646 64.1434 19.8517 64.3173 19.7753 64.4352C19.735 64.499 19.9853 64.756 19.945 64.7831C19.8326 64.8565 18.7214 64.4835 18.609 64.4004C18.3418 64.2052 18.5178 63.9655 18.4372 63.8476C18.4117 63.8109 18.0958 63.9945 17.9325 63.8341C17.2369 63.1499 16.6749 58.4205 16.7873 57.3633C16.9951 55.3938 18.8422 51.0529 19.8665 49.153C20.8802 47.2706 23.2702 43.5346 24.7335 41.9923C24.9456 41.77 25.0601 41.5149 25.4588 41.5922L24.8247 42.6552C24.7907 42.7982 25.0558 42.7905 25.1407 42.7499C25.5245 42.5624 26.8966 40.5234 27.1574 40.0441C26.8923 40.2644 26.5191 40.3533 26.5191 40.8152C26.1543 40.8732 26.2816 40.3282 26.3494 40.1774C26.517 39.816 27.4161 38.9888 27.7915 38.6892C27.6006 39.1163 27.378 39.6363 27.1574 40.0421L27.1468 40.0441ZM42.8399 4.67886L39.2368 3.51922L41.7753 4.77936L42.8399 4.68079V4.67886ZM43.0519 8.53853C38.8106 5.34565 32.9935 4.16282 27.5731 3.90383L29.6916 4.38508C32.1643 5.27028 34.9785 5.36691 37.5339 6.12841C39.5422 6.72563 41.0479 7.94518 43.0519 8.53853ZM37.5382 30.3823C37.3006 30.1697 35.831 31.3912 35.6317 31.6386C35.5786 31.7971 36.2912 31.5864 35.8416 32.1198C35.9264 32.1778 37.0631 31.7584 37.1013 31.7082C37.1649 31.627 36.9359 31.3332 37.0165 31.1496C37.1246 30.9003 37.6654 30.7998 37.5382 30.3823Z" fill="url(#paint0_linear_2002_2172)"/>
<path d="M26.7227 74.8332L26.6209 74.2515C27.9442 74.6168 29.3799 74.8081 30.5696 75.4904C30.7032 75.5657 31.3224 75.7146 30.9641 75.9929C30.8983 76.0431 28.9452 75.2797 29.4817 75.9909C29.5411 76.0702 31.0637 76.8819 31.2737 76.9689C32.264 77.3825 33.1462 77.0269 33.933 77.6396C33.9606 78.2619 32.6288 77.4695 32.2386 77.7362L34.1451 78.5054L33.0847 78.316L33.7209 78.892C33.4665 78.9384 32.8027 78.8069 32.6797 78.9094C32.1516 79.3462 33.4558 81.8568 33.4007 82.396C33.3816 82.5816 32.8727 85.357 32.8154 85.5271C32.6012 86.1475 31.6681 86.8297 31.5918 87.512C31.5515 87.8792 32.0095 87.7381 31.9989 87.8773C31.9883 87.9971 31.7445 88.2174 31.8272 88.3392C31.8865 88.43 32.4613 88.4474 32.4506 88.7489L31.3924 88.7528C31.3543 89.2669 31.9693 89.4718 32.2534 89.8177C32.3891 89.982 32.2619 90.2043 32.3064 90.2565C32.6966 90.7184 33.458 90.6971 33.2989 91.8432L31.8166 91.6519C32.3404 93.7412 31.6639 92.6473 30.6014 92.4695C29.7574 92.3284 29.2315 92.57 28.5571 92.5564C28.2093 92.5487 27.836 92.2317 27.4649 92.2433C26.9857 92.2607 25.4609 93.1633 24.5426 92.97C23.9319 92.8425 23.5247 91.1243 22.5534 92.4192L18.0343 92.8077L18.6238 92.4791L21.0011 92.0384L17.186 92.4211L17.502 91.8394C16.378 92.0539 16.4098 92.999 15.7036 93.5808C15.9199 93.113 15.3113 92.9758 15.2816 92.8618C15.1374 92.2955 15.6464 91.8954 14.6391 92.0326L15.2774 91.2634C14.3612 91.7311 13.5045 91.3601 12.5226 91.65C12.3106 91.1301 12.4654 90.7706 12.7326 90.2971L11.2481 90.2932C11.089 88.8185 11.9585 89.0504 12.4548 88.5131C12.4866 88.4783 12.3572 88.2425 12.599 87.9739C13.0083 87.5178 13.8841 87.2665 14.0241 87.0694C14.0728 86.9998 14.2425 85.6566 14.2255 85.5831C14.1874 85.4034 13.8078 85.4787 13.7908 85.4594C13.6869 85.3454 14.1598 85.1019 14.2128 84.9782C14.2828 84.8177 13.9435 84.9414 13.8608 84.8158C13.6126 84.4312 14.041 84.1529 12.9404 84.3017L13.3624 83.919C12.9658 83.7219 12.2872 84.4795 12.0921 84.3017C11.897 84.1239 12.4802 83.7373 12.5014 83.4455C12.5332 82.9778 11.8207 82.655 12.9383 82.7555L12.5163 82.4695L13.3624 80.9213C12.4187 80.7435 13.4812 80.5541 13.3645 80.1521C13.3073 79.955 12.7835 79.9028 12.7453 79.841C12.6965 79.7636 12.951 79.5201 12.9425 79.3945C12.9319 79.2418 12.5566 79.3133 12.5502 79.1916C12.5035 78.3527 13.021 77.9681 11.4559 78.1189C11.3902 77.7401 11.9628 78.0203 12.0942 77.9256C12.1303 77.8986 11.8991 77.3574 12.09 77.1641L11.4559 77.0578C12.2257 76.5746 12.16 75.759 12.8301 75.2178C13.6466 74.5588 14.919 74.6999 15.8097 74.0679C18.047 73.9036 20.5812 73.7606 22.8122 74.0524C23.4696 74.1394 24.3963 74.5936 25.0728 74.6999C25.6009 74.783 26.1925 74.5955 26.7227 74.8313V74.8332Z" fill="url(#paint1_linear_2002_2172)"/>
<path d="M43.0519 43.7182C43.1049 44.9242 42.7041 44.5686 42.2736 44.9397C40.6004 46.3776 39.0969 47.344 37.413 48.9172C37.2816 49.0409 36.9232 49.5299 36.692 49.3212C36.4863 49.1356 38.397 47.2126 38.5116 46.826L39.4425 45.935L43.0519 43.7182Z" fill="url(#paint2_linear_2002_2172)"/>
<path d="M48.4045 38.927C47.5244 40.2683 47.6856 39.9494 46.515 41.0626C46.1714 41.3893 46.0209 42.4098 45.1726 42.3634C44.9266 42.1566 47.9846 38.5849 48.3536 38.2099C48.7438 37.8176 49.433 37.7113 49.4161 36.9536C49.9399 37.1353 49.134 38.3027 48.9623 38.5752C48.8223 38.7936 48.4597 38.8419 48.4045 38.925V38.927Z" fill="url(#paint3_linear_2002_2172)"/>
<path d="M32.5673 92.0366C33.1144 91.8974 34.1472 92.7884 34.073 93.2967C33.8885 94.5588 31.1379 92.4019 32.5673 92.0366Z" fill="url(#paint4_linear_2002_2172)"/>
<path d="M26.5106 93.7779L25.5839 93.9441L21.8473 93.1961C23.4293 93.1014 24.9943 93.4049 26.5106 93.776V93.7779Z" fill="url(#paint5_linear_2002_2172)"/>
<path d="M45.1726 43.1403C45.2489 43.2311 44.1038 44.3927 43.6881 44.1028C44.0147 43.15 43.9087 42.6822 45.1726 43.1403Z" fill="url(#paint6_linear_2002_2172)"/>
<defs>
<linearGradient id="paint0_linear_2002_2172" x1="45" y1="18.2275" x2="44.5847" y2="91.5937" gradientUnits="userSpaceOnUse">
<stop stop-color="#158D39"/>
<stop offset="0.480769" stop-color="#ADFA02"/>
<stop offset="1" stop-color="#055F30"/>
</linearGradient>
<linearGradient id="paint1_linear_2002_2172" x1="45" y1="18.2275" x2="44.5847" y2="91.5937" gradientUnits="userSpaceOnUse">
<stop stop-color="#158D39"/>
<stop offset="0.480769" stop-color="#ADFA02"/>
<stop offset="1" stop-color="#055F30"/>
</linearGradient>
<linearGradient id="paint2_linear_2002_2172" x1="45" y1="18.2275" x2="44.5847" y2="91.5937" gradientUnits="userSpaceOnUse">
<stop stop-color="#158D39"/>
<stop offset="0.480769" stop-color="#ADFA02"/>
<stop offset="1" stop-color="#055F30"/>
</linearGradient>
<linearGradient id="paint3_linear_2002_2172" x1="45" y1="18.2275" x2="44.5847" y2="91.5937" gradientUnits="userSpaceOnUse">
<stop stop-color="#158D39"/>
<stop offset="0.480769" stop-color="#ADFA02"/>
<stop offset="1" stop-color="#055F30"/>
</linearGradient>
<linearGradient id="paint4_linear_2002_2172" x1="45" y1="18.2275" x2="44.5847" y2="91.5937" gradientUnits="userSpaceOnUse">
<stop stop-color="#158D39"/>
<stop offset="0.480769" stop-color="#ADFA02"/>
<stop offset="1" stop-color="#055F30"/>
</linearGradient>
<linearGradient id="paint5_linear_2002_2172" x1="45" y1="18.2275" x2="44.5847" y2="91.5937" gradientUnits="userSpaceOnUse">
<stop stop-color="#158D39"/>
<stop offset="0.480769" stop-color="#ADFA02"/>
<stop offset="1" stop-color="#055F30"/>
</linearGradient>
<linearGradient id="paint6_linear_2002_2172" x1="45" y1="18.2275" x2="44.5847" y2="91.5937" gradientUnits="userSpaceOnUse">
<stop stop-color="#158D39"/>
<stop offset="0.480769" stop-color="#ADFA02"/>
<stop offset="1" stop-color="#055F30"/>
</linearGradient>
</defs>
</svg>
