<svg xmlns="http://www.w3.org/2000/svg" width="208" height="189" viewBox="0 0 208 189" fill="none">
  <path d="M155.969 141.756C184.683 115.768 184.683 73.634 155.969 47.6463C127.256 21.6587 80.703 21.6587 51.9898 47.6463C23.2766 73.634 23.2766 115.768 51.9898 141.756C80.703 167.744 127.256 167.744 155.969 141.756Z" fill="#009245"/>
  <path d="M151.619 135.824C177.321 112.561 177.321 74.8457 151.619 51.5834C125.917 28.321 84.2456 28.321 58.5435 51.5834C32.8415 74.8457 32.8415 112.561 58.5435 135.824C84.2456 159.086 125.917 159.086 151.619 135.824Z" fill="#0BB75D"/>
  <path d="M147.402 134.002C171.384 112.297 171.384 77.1057 147.402 55.4005C123.42 33.6953 84.5387 33.6953 60.5572 55.4005C36.5756 77.1057 36.5756 112.297 60.5572 134.002C84.5387 155.707 123.42 155.707 147.402 134.002Z" fill="white"/>
  <path d="M109.523 94.7586C109.523 95.4926 109.351 96.1885 109.046 96.8201L154.65 74.4512L106.153 90.0605C108.138 90.8587 109.523 92.6607 109.523 94.7586Z" fill="#009245"/>
  <path d="M104.109 89.6557C104.831 89.6557 105.519 89.7838 106.154 90.0097L93.0967 62.6338L99.9501 91.3335C100.982 90.3049 102.46 89.6557 104.109 89.6557Z" fill="#009245"/>
  <path d="M109.418 94.7102C109.418 92.6427 108.047 90.8669 106.085 90.0803C106.008 90.049 105.929 90.0216 105.85 89.9935C105.221 89.7714 104.539 89.6455 103.823 89.6455C102.188 89.6455 100.723 90.2836 99.6995 91.2946C98.7881 92.1954 98.2266 93.3926 98.2266 94.7102C98.2266 97.5072 100.732 99.7748 103.822 99.7748C106.114 99.7748 108.081 98.5268 108.946 96.7417C109.247 96.1192 109.417 95.4327 109.417 94.7102H109.418Z" fill="#F59D16"/>
  <path d="M103.356 50.8163C102.587 50.8163 101.957 50.2465 101.957 49.5501V41.9533C101.957 41.2568 102.587 40.687 103.356 40.687C104.125 40.687 104.755 41.2568 104.755 41.9533V49.5501C104.755 50.2465 104.125 50.8163 103.356 50.8163Z" fill="#009245"/>
  <path d="M150.92 94.2881C150.92 93.5917 151.549 93.022 152.319 93.022H160.713C161.482 93.022 162.112 93.5917 162.112 94.2881C162.112 94.9845 161.482 95.5543 160.713 95.5543H152.319C151.549 95.5543 150.92 94.9845 150.92 94.2881Z" fill="#009245"/>
  <path d="M136.878 63.5448C136.326 63.0717 136.326 62.2964 136.878 61.8232L142.902 56.6576C143.454 56.1844 144.358 56.1844 144.91 56.6576C145.462 57.1308 145.462 57.9061 144.91 58.3792L138.886 63.5448C138.334 64.018 137.43 64.018 136.878 63.5448Z" fill="#009245"/>
  <path d="M111.619 143.295C109.289 143.295 106.992 143.173 104.73 142.945V146.42C104.73 147.108 104.11 147.671 103.352 147.671C102.594 147.671 101.974 147.108 101.974 146.42V142.61C89.1087 140.77 77.5712 135.307 68.6673 127.409L63.6049 132.002C63.0694 132.488 62.1921 132.488 61.6567 132.002C61.1212 131.516 61.1212 130.72 61.6567 130.234L66.74 125.623C58.3306 117.468 52.5923 107.02 50.7854 95.4245H45.764C45.0061 95.4245 44.3861 94.862 44.3861 94.1745C44.3861 93.4869 45.0061 92.9244 45.764 92.9244H50.4583C50.2717 91.1553 50.1732 89.3633 50.1732 87.5499C50.1732 74.4621 55.1571 62.4376 63.4802 52.9268C50.761 63.1402 42.7344 78.0533 42.7344 94.6745C42.7344 125.463 70.2449 150.421 104.18 150.421C123.69 150.421 141.063 142.162 152.319 129.298C141.479 138.003 127.234 143.297 111.62 143.297L111.619 143.295Z" fill="#DADADA"/>
  <path d="M136.878 125.031C137.43 124.557 138.334 124.557 138.886 125.031L144.91 130.196C145.462 130.669 145.462 131.445 144.91 131.918C144.358 132.391 143.454 132.391 142.902 131.918L136.878 126.752C136.326 126.279 136.326 125.504 136.878 125.031Z" fill="#009245"/>
  <path d="M61.3348 56.6576C61.8866 56.1844 62.7908 56.1844 63.3426 56.6576L69.3671 61.8232C69.9189 62.2964 69.9189 63.0717 69.3671 63.5448C68.8152 64.018 67.9111 64.018 67.3592 63.5448L61.3348 58.3792C60.7829 57.9061 60.7829 57.1308 61.3348 56.6576Z" fill="#009245"/>
  <path d="M108.466 94.7634C108.705 96.1635 106.729 97.094 106.233 95.7324C105.34 93.2816 104.235 93.2698 102.916 92.4838C101.194 91.4583 102.015 90.4893 103.617 90.4893C105.22 90.4893 107.892 91.4009 108.466 94.7634Z" fill="#FFD500"/>
  <path d="M103.356 147.467C102.587 147.467 101.957 146.921 101.957 146.254V138.973C101.957 138.306 102.587 137.76 103.356 137.76C104.125 137.76 104.755 138.306 104.755 138.973V146.254C104.755 146.921 104.125 147.467 103.356 147.467Z" fill="#009245"/>
  <path d="M44.1328 94.2881C44.1328 93.5917 44.7624 93.022 45.5319 93.022H53.9254C54.6949 93.022 55.3245 93.5917 55.3245 94.2881C55.3245 94.9845 54.6949 95.5543 53.9254 95.5543H45.5319C44.7624 95.5543 44.1328 94.9845 44.1328 94.2881Z" fill="#009245"/>
  <path d="M61.3348 131.918C60.7829 131.445 60.7829 130.669 61.3348 130.196L67.3592 125.031C67.9111 124.557 68.8152 124.557 69.3671 125.031C69.9189 125.504 69.9189 126.279 69.3671 126.752L63.3426 131.918C62.7908 132.391 61.8866 132.391 61.3348 131.918Z" fill="#009245"/>
</svg>