<svg width="1200" height="578" viewBox="0 0 1200 578" fill="none" xmlns="http://www.w3.org/2000/svg">
<path d="M1137.62 0H62.3813C30.1439 0 4 26.1689 4 58.4372V511.599C4 543.849 30.1256 570 62.3448 570H572.707C600.511 570 623.061 547.447 623.061 519.598V486.453C624.192 474.492 626.199 453.253 642.162 440.452C653.474 431.376 667.485 429.988 673.214 429.422H1120.67C1162.27 429.422 1196 395.656 1196 354.02V58.4372C1196 26.1689 1169.86 0 1137.62 0Z" fill="#13BB59"/>
<mask id="mask0_0_1" style="mask-type:alpha" maskUnits="userSpaceOnUse" x="4" y="0" width="1192" height="570">
<path d="M62.3809 0.5H1137.62C1169.58 0.500264 1195.5 26.4451 1195.5 58.4375V354.02C1195.5 395.38 1161.99 428.922 1120.67 428.922H673.189L673.165 428.925C667.438 429.491 653.288 430.884 641.85 440.062C625.698 453.014 623.691 474.477 622.562 486.406L622.561 486.43V519.598C622.561 547.171 600.234 569.5 572.707 569.5H62.3447C30.4023 569.5 4.50016 543.574 4.5 511.6V58.4375C4.5 26.4451 30.4202 0.500233 62.3809 0.5Z" fill="#02803E" stroke="black"/>
</mask>
<g mask="url(#mask0_0_1)">
<g filter="url(#filter0_f_0_1)">
<ellipse cx="1037.31" cy="98.0883" rx="193" ry="219.538" transform="rotate(131.61 1037.31 98.0883)" fill="#02803E"/>
</g>
<g filter="url(#filter1_f_0_1)">
<ellipse cx="57.6129" cy="599.189" rx="305.482" ry="347.485" transform="rotate(131.61 57.6129 599.189)" fill="#02803E"/>
</g>
</g>
<defs>
<filter id="filter0_f_0_1" x="329.046" y="-607.038" width="1416.52" height="1410.25" filterUnits="userSpaceOnUse" color-interpolation-filters="sRGB">
<feFlood flood-opacity="0" result="BackgroundImageFix"/>
<feBlend mode="normal" in="SourceGraphic" in2="BackgroundImageFix" result="shape"/>
<feGaussianBlur stdDeviation="250" result="effect1_foregroundBlur_0_1"/>
</filter>
<filter id="filter1_f_0_1" x="-772.025" y="-225.486" width="1659.28" height="1649.35" filterUnits="userSpaceOnUse" color-interpolation-filters="sRGB">
<feFlood flood-opacity="0" result="BackgroundImageFix"/>
<feBlend mode="normal" in="SourceGraphic" in2="BackgroundImageFix" result="shape"/>
<feGaussianBlur stdDeviation="250" result="effect1_foregroundBlur_0_1"/>
</filter>
</defs>
</svg>
